<svg width="533" height="331" viewBox="0 0 533 331" fill="none" xmlns="http://www.w3.org/2000/svg">
<mask id="path-1-outside-1_246_18" maskUnits="userSpaceOnUse" x="0" y="0" width="533" height="331" fill="black">
<rect fill="white" width="533" height="331"/>
<path d="M187.5 15C187.167 26.1667 185.083 37.0833 181.25 47.75C177.417 58.4167 172.167 68.5833 165.5 78.25C159 87.75 151.5 96.4167 143 104.25C134.5 111.917 125.417 118.333 115.75 123.5C119.583 126.167 123.75 129.5 128.25 133.5C132.917 137.333 136.917 141.583 140.25 146.25C143.583 150.917 145.25 155.75 145.25 160.75C145.25 164.25 143.833 167.25 141 169.75C138.333 172.25 135.333 173.5 132 173.5C128.5 173.5 125.333 172.333 122.5 170C119.667 167.5 118.25 164.417 118.25 160.75C118.25 157.583 119.25 154.75 121.25 152.25C123.25 149.75 125.667 147.917 128.5 146.75C118.167 140.25 107.417 134.667 96.25 130C85.25 125.167 74.0833 120.583 62.75 116.25C51.5833 111.917 40.4167 107.417 29.25 102.75L41.5 79.5C49.1667 83.1667 56.5833 87.1667 63.75 91.5C71.0833 95.6667 78.3333 99.9167 85.5 104.25C89.6667 106.583 93.75 109 97.75 111.5C101.75 114 105.667 116.667 109.5 119.5C118.5 112.667 126.333 104.083 133 93.75C139.667 83.4167 145.083 72.4167 149.25 60.75C153.583 49.0833 156.583 37.8333 158.25 27L15 29.75V15.5L187.5 15Z"/>
<path d="M274 192.75C273.667 195.583 273.333 198.5 273 201.5C272.667 204.5 272.25 207.417 271.75 210.25C266.583 236.917 256.583 258.167 241.75 274C226.917 289.667 206.583 301.5 180.75 309.5C174.917 311.333 168.917 312.833 162.75 314C156.75 315 150.667 315.5 144.5 315.5C140.833 315.5 137.667 314.333 135 312C132.333 309.5 131 306.417 131 302.75C131 299.083 132.333 295.75 135 292.75C137.667 289.75 140.833 288.25 144.5 288.25C148.333 288.25 151.583 289.75 154.25 292.75C156.917 295.75 158.25 299.083 158.25 302.75C158.25 303.417 158.167 304.167 158 305C157.833 305.667 157.667 306.417 157.5 307.25C169.5 304.417 180.583 299.75 190.75 293.25C201.083 286.583 210.167 278.583 218 269.25C225.833 259.75 232.167 249.417 237 238.25C242 227.083 245.167 215.417 246.5 203.25H117.75V192.75H274ZM267 143.5C267 147.167 265.583 150.333 262.75 153C260.083 155.5 256.917 156.75 253.25 156.75C233.75 156.75 214.25 156.75 194.75 156.75C175.417 156.583 156 156.5 136.5 156.5V145.5H240.25C239.917 145 239.75 144.333 239.75 143.5C239.75 139.833 241.083 136.5 243.75 133.5C246.417 130.5 249.583 129 253.25 129C257.083 129 260.333 130.5 263 133.5C265.667 136.5 267 139.833 267 143.5Z"/>
<path d="M448.5 208.75C448.5 211.75 448.25 214.833 447.75 218C447.25 221 446.833 224 446.5 227C446 230.333 445.667 233.75 445.5 237.25C445.333 240.583 444.833 243.917 444 247.25C443.833 248.25 443.333 249.25 442.5 250.25C441.833 251.083 440.917 251.5 439.75 251.5C421.917 251.5 404.083 251.417 386.25 251.25C368.417 250.917 350.583 250.75 332.75 250.75C327.417 250.75 322 251 316.5 251.5C311.167 251.833 305.833 252 300.5 252C299.667 252 298.833 251.75 298 251.25C297.333 250.583 297 249.833 297 249C297 248 297.25 247.083 297.75 246.25C298.25 245.25 299.083 244.75 300.25 244.75C303.75 244.75 307.083 244.583 310.25 244.25C313.417 243.75 316 242.583 318 240.75C320.167 238.75 321.25 235.583 321.25 231.25V87.75C321.25 83.9167 320.083 81.4167 317.75 80.25C315.417 78.9167 312.583 78.25 309.25 78.25C307.583 78.25 306 78.3333 304.5 78.5C303 78.5 301.5 78.5 300 78.5C298.667 78.5 297.5 78.1667 296.5 77.5C295.5 76.8333 295 75.75 295 74.25C295 72.9167 295.25 71.75 295.75 70.75C296.25 69.75 297.333 69.25 299 69.25C301.833 69.25 304.583 69.3333 307.25 69.5C310.083 69.6667 312.833 69.75 315.5 69.75C332.333 69.75 349.167 69.6667 366 69.5C382.833 69.1667 399.583 69 416.25 69C423.917 69 431.5 68.75 439 68.25C439.667 73.0833 440.5 77.9167 441.5 82.75C442.5 87.5833 443.333 92.4167 444 97.25C444.333 98.25 444.583 99.25 444.75 100.25C444.917 101.083 445 102 445 103C445 104.667 444.417 105.833 443.25 106.5C442.25 107.167 441 107.5 439.5 107.5C438.167 107.5 437.167 107.25 436.5 106.75C436 106.083 435.5 105.083 435 103.75C431.833 93.75 427.583 86.8333 422.25 83C417.083 79.1667 409.167 77.25 398.5 77.25H346.5V152.5C353 152.5 359.5 152.5 366 152.5C372.5 152.333 379.083 152.083 385.75 151.75C392.583 151.417 398.917 150.833 404.75 150C410.75 149 417.083 147.917 423.75 146.75H424C425 146.75 425.5 147.167 425.5 148C425.5 149.167 425 151.25 424 154.25C423 157.25 422.25 159.25 421.75 160.25C420.917 162.25 419.583 163.25 417.75 163.25C413.583 163.25 409.25 163 404.75 162.5C400.417 161.833 396.083 161.5 391.75 161.5C388.75 161.333 385.75 161.333 382.75 161.5C379.75 161.5 376.667 161.5 373.5 161.5C372.333 161.5 371.083 161.5 369.75 161.5C368.583 161.333 367.333 161.25 366 161.25C363.5 161.25 360.75 161.5 357.75 162C354.75 162.333 352.083 163.333 349.75 165C347.583 166.5 346.5 169 346.5 172.5V232.5C346.5 238.167 347.917 241.5 350.75 242.5C353.583 243.333 357.333 243.75 362 243.75H382C386.667 243.75 391.833 243.5 397.5 243C403.333 242.5 409 241.417 414.5 239.75C420 238.083 424.5 235.667 428 232.5C431.833 229 434.5 225.167 436 221C437.667 216.667 439.583 212.333 441.75 208C442.583 206.5 443.917 205.75 445.75 205.75C447.583 205.75 448.5 206.75 448.5 208.75Z"/>
<path d="M517.707 233.25C517.707 237.917 515.957 241.833 512.457 245C508.957 248.167 504.874 249.75 500.207 249.75C495.54 249.75 491.457 248.167 487.957 245C484.457 241.833 482.707 237.917 482.707 233.25C482.707 228.417 484.457 224.417 487.957 221.25C491.457 218.083 495.54 216.5 500.207 216.5C504.874 216.5 508.957 218.083 512.457 221.25C515.957 224.417 517.707 228.417 517.707 233.25Z"/>
</mask>
<path d="M187.5 15C187.167 26.1667 185.083 37.0833 181.25 47.75C177.417 58.4167 172.167 68.5833 165.5 78.25C159 87.75 151.5 96.4167 143 104.25C134.5 111.917 125.417 118.333 115.75 123.5C119.583 126.167 123.75 129.5 128.25 133.5C132.917 137.333 136.917 141.583 140.25 146.25C143.583 150.917 145.25 155.75 145.25 160.75C145.25 164.25 143.833 167.25 141 169.75C138.333 172.25 135.333 173.5 132 173.5C128.5 173.5 125.333 172.333 122.5 170C119.667 167.5 118.25 164.417 118.25 160.75C118.25 157.583 119.25 154.75 121.25 152.25C123.25 149.75 125.667 147.917 128.5 146.75C118.167 140.25 107.417 134.667 96.25 130C85.25 125.167 74.0833 120.583 62.75 116.25C51.5833 111.917 40.4167 107.417 29.25 102.75L41.5 79.5C49.1667 83.1667 56.5833 87.1667 63.75 91.5C71.0833 95.6667 78.3333 99.9167 85.5 104.25C89.6667 106.583 93.75 109 97.75 111.5C101.75 114 105.667 116.667 109.5 119.5C118.5 112.667 126.333 104.083 133 93.75C139.667 83.4167 145.083 72.4167 149.25 60.75C153.583 49.0833 156.583 37.8333 158.25 27L15 29.75V15.5L187.5 15Z" fill="#FFF8F2"/>
<path d="M274 192.75C273.667 195.583 273.333 198.5 273 201.5C272.667 204.5 272.25 207.417 271.75 210.25C266.583 236.917 256.583 258.167 241.75 274C226.917 289.667 206.583 301.5 180.75 309.5C174.917 311.333 168.917 312.833 162.75 314C156.75 315 150.667 315.5 144.5 315.5C140.833 315.5 137.667 314.333 135 312C132.333 309.5 131 306.417 131 302.75C131 299.083 132.333 295.75 135 292.75C137.667 289.75 140.833 288.25 144.5 288.25C148.333 288.25 151.583 289.75 154.25 292.75C156.917 295.75 158.25 299.083 158.25 302.75C158.25 303.417 158.167 304.167 158 305C157.833 305.667 157.667 306.417 157.5 307.25C169.5 304.417 180.583 299.75 190.75 293.25C201.083 286.583 210.167 278.583 218 269.25C225.833 259.75 232.167 249.417 237 238.25C242 227.083 245.167 215.417 246.5 203.25H117.75V192.75H274ZM267 143.5C267 147.167 265.583 150.333 262.75 153C260.083 155.5 256.917 156.75 253.25 156.75C233.75 156.75 214.25 156.75 194.75 156.75C175.417 156.583 156 156.5 136.5 156.5V145.5H240.25C239.917 145 239.75 144.333 239.75 143.5C239.75 139.833 241.083 136.5 243.75 133.5C246.417 130.5 249.583 129 253.25 129C257.083 129 260.333 130.5 263 133.5C265.667 136.5 267 139.833 267 143.5Z" fill="#FFF8F2"/>
<path d="M448.5 208.75C448.5 211.75 448.25 214.833 447.75 218C447.25 221 446.833 224 446.5 227C446 230.333 445.667 233.75 445.5 237.25C445.333 240.583 444.833 243.917 444 247.25C443.833 248.25 443.333 249.25 442.5 250.25C441.833 251.083 440.917 251.5 439.75 251.5C421.917 251.5 404.083 251.417 386.25 251.25C368.417 250.917 350.583 250.75 332.75 250.75C327.417 250.75 322 251 316.5 251.5C311.167 251.833 305.833 252 300.5 252C299.667 252 298.833 251.75 298 251.25C297.333 250.583 297 249.833 297 249C297 248 297.25 247.083 297.75 246.25C298.25 245.25 299.083 244.75 300.25 244.75C303.75 244.75 307.083 244.583 310.25 244.25C313.417 243.75 316 242.583 318 240.75C320.167 238.75 321.25 235.583 321.25 231.25V87.75C321.25 83.9167 320.083 81.4167 317.75 80.25C315.417 78.9167 312.583 78.25 309.25 78.25C307.583 78.25 306 78.3333 304.5 78.5C303 78.5 301.5 78.5 300 78.5C298.667 78.5 297.5 78.1667 296.5 77.5C295.5 76.8333 295 75.75 295 74.25C295 72.9167 295.25 71.75 295.75 70.75C296.25 69.75 297.333 69.25 299 69.25C301.833 69.25 304.583 69.3333 307.25 69.5C310.083 69.6667 312.833 69.75 315.5 69.75C332.333 69.75 349.167 69.6667 366 69.5C382.833 69.1667 399.583 69 416.25 69C423.917 69 431.5 68.75 439 68.25C439.667 73.0833 440.5 77.9167 441.5 82.75C442.5 87.5833 443.333 92.4167 444 97.25C444.333 98.25 444.583 99.25 444.75 100.25C444.917 101.083 445 102 445 103C445 104.667 444.417 105.833 443.25 106.5C442.25 107.167 441 107.5 439.5 107.5C438.167 107.5 437.167 107.25 436.5 106.75C436 106.083 435.5 105.083 435 103.75C431.833 93.75 427.583 86.8333 422.25 83C417.083 79.1667 409.167 77.25 398.5 77.25H346.5V152.5C353 152.5 359.5 152.5 366 152.5C372.5 152.333 379.083 152.083 385.75 151.75C392.583 151.417 398.917 150.833 404.75 150C410.75 149 417.083 147.917 423.75 146.75H424C425 146.75 425.5 147.167 425.5 148C425.5 149.167 425 151.25 424 154.25C423 157.25 422.25 159.25 421.75 160.25C420.917 162.25 419.583 163.25 417.75 163.25C413.583 163.25 409.25 163 404.75 162.5C400.417 161.833 396.083 161.5 391.75 161.5C388.75 161.333 385.75 161.333 382.75 161.5C379.75 161.5 376.667 161.5 373.5 161.5C372.333 161.5 371.083 161.5 369.75 161.5C368.583 161.333 367.333 161.25 366 161.25C363.5 161.25 360.75 161.5 357.75 162C354.75 162.333 352.083 163.333 349.75 165C347.583 166.5 346.5 169 346.5 172.5V232.5C346.5 238.167 347.917 241.5 350.75 242.5C353.583 243.333 357.333 243.75 362 243.75H382C386.667 243.75 391.833 243.5 397.5 243C403.333 242.5 409 241.417 414.5 239.75C420 238.083 424.5 235.667 428 232.5C431.833 229 434.5 225.167 436 221C437.667 216.667 439.583 212.333 441.75 208C442.583 206.5 443.917 205.75 445.75 205.75C447.583 205.75 448.5 206.75 448.5 208.75Z" fill="#FFF8F2"/>
<path d="M517.707 233.25C517.707 237.917 515.957 241.833 512.457 245C508.957 248.167 504.874 249.75 500.207 249.75C495.54 249.75 491.457 248.167 487.957 245C484.457 241.833 482.707 237.917 482.707 233.25C482.707 228.417 484.457 224.417 487.957 221.25C491.457 218.083 495.54 216.5 500.207 216.5C504.874 216.5 508.957 218.083 512.457 221.25C515.957 224.417 517.707 228.417 517.707 233.25Z" fill="#FFF8F2"/>
<path d="M187.5 15C187.167 26.1667 185.083 37.0833 181.25 47.75C177.417 58.4167 172.167 68.5833 165.5 78.25C159 87.75 151.5 96.4167 143 104.25C134.5 111.917 125.417 118.333 115.75 123.5C119.583 126.167 123.75 129.5 128.25 133.5C132.917 137.333 136.917 141.583 140.25 146.25C143.583 150.917 145.25 155.75 145.25 160.75C145.25 164.25 143.833 167.25 141 169.75C138.333 172.25 135.333 173.5 132 173.5C128.5 173.5 125.333 172.333 122.5 170C119.667 167.5 118.25 164.417 118.25 160.75C118.25 157.583 119.25 154.75 121.25 152.25C123.25 149.75 125.667 147.917 128.5 146.75C118.167 140.25 107.417 134.667 96.25 130C85.25 125.167 74.0833 120.583 62.75 116.25C51.5833 111.917 40.4167 107.417 29.25 102.75L41.5 79.5C49.1667 83.1667 56.5833 87.1667 63.75 91.5C71.0833 95.6667 78.3333 99.9167 85.5 104.25C89.6667 106.583 93.75 109 97.75 111.5C101.75 114 105.667 116.667 109.5 119.5C118.5 112.667 126.333 104.083 133 93.75C139.667 83.4167 145.083 72.4167 149.25 60.75C153.583 49.0833 156.583 37.8333 158.25 27L15 29.75V15.5L187.5 15Z" stroke="#565452" stroke-width="30" stroke-linejoin="round" mask="url(#path-1-outside-1_246_18)"/>
<path d="M274 192.75C273.667 195.583 273.333 198.5 273 201.5C272.667 204.5 272.25 207.417 271.75 210.25C266.583 236.917 256.583 258.167 241.75 274C226.917 289.667 206.583 301.5 180.75 309.5C174.917 311.333 168.917 312.833 162.75 314C156.75 315 150.667 315.5 144.5 315.5C140.833 315.5 137.667 314.333 135 312C132.333 309.5 131 306.417 131 302.75C131 299.083 132.333 295.75 135 292.75C137.667 289.75 140.833 288.25 144.5 288.25C148.333 288.25 151.583 289.75 154.25 292.75C156.917 295.75 158.25 299.083 158.25 302.75C158.25 303.417 158.167 304.167 158 305C157.833 305.667 157.667 306.417 157.5 307.25C169.5 304.417 180.583 299.75 190.75 293.25C201.083 286.583 210.167 278.583 218 269.25C225.833 259.75 232.167 249.417 237 238.25C242 227.083 245.167 215.417 246.5 203.25H117.75V192.75H274ZM267 143.5C267 147.167 265.583 150.333 262.75 153C260.083 155.5 256.917 156.75 253.25 156.75C233.75 156.75 214.25 156.75 194.75 156.75C175.417 156.583 156 156.5 136.5 156.5V145.5H240.25C239.917 145 239.75 144.333 239.75 143.5C239.75 139.833 241.083 136.5 243.75 133.5C246.417 130.5 249.583 129 253.25 129C257.083 129 260.333 130.5 263 133.5C265.667 136.5 267 139.833 267 143.5Z" stroke="#565452" stroke-width="30" stroke-linejoin="round" mask="url(#path-1-outside-1_246_18)"/>
<path d="M448.5 208.75C448.5 211.75 448.25 214.833 447.75 218C447.25 221 446.833 224 446.5 227C446 230.333 445.667 233.75 445.5 237.25C445.333 240.583 444.833 243.917 444 247.25C443.833 248.25 443.333 249.25 442.5 250.25C441.833 251.083 440.917 251.5 439.75 251.5C421.917 251.5 404.083 251.417 386.25 251.25C368.417 250.917 350.583 250.75 332.75 250.75C327.417 250.75 322 251 316.5 251.5C311.167 251.833 305.833 252 300.5 252C299.667 252 298.833 251.75 298 251.25C297.333 250.583 297 249.833 297 249C297 248 297.25 247.083 297.75 246.25C298.25 245.25 299.083 244.75 300.25 244.75C303.75 244.75 307.083 244.583 310.25 244.25C313.417 243.75 316 242.583 318 240.75C320.167 238.75 321.25 235.583 321.25 231.25V87.75C321.25 83.9167 320.083 81.4167 317.75 80.25C315.417 78.9167 312.583 78.25 309.25 78.25C307.583 78.25 306 78.3333 304.5 78.5C303 78.5 301.5 78.5 300 78.5C298.667 78.5 297.5 78.1667 296.5 77.5C295.5 76.8333 295 75.75 295 74.25C295 72.9167 295.25 71.75 295.75 70.75C296.25 69.75 297.333 69.25 299 69.25C301.833 69.25 304.583 69.3333 307.25 69.5C310.083 69.6667 312.833 69.75 315.5 69.75C332.333 69.75 349.167 69.6667 366 69.5C382.833 69.1667 399.583 69 416.25 69C423.917 69 431.5 68.75 439 68.25C439.667 73.0833 440.5 77.9167 441.5 82.75C442.5 87.5833 443.333 92.4167 444 97.25C444.333 98.25 444.583 99.25 444.75 100.25C444.917 101.083 445 102 445 103C445 104.667 444.417 105.833 443.25 106.5C442.25 107.167 441 107.5 439.5 107.5C438.167 107.5 437.167 107.25 436.5 106.75C436 106.083 435.5 105.083 435 103.75C431.833 93.75 427.583 86.8333 422.25 83C417.083 79.1667 409.167 77.25 398.5 77.25H346.5V152.5C353 152.5 359.5 152.5 366 152.5C372.5 152.333 379.083 152.083 385.75 151.75C392.583 151.417 398.917 150.833 404.75 150C410.75 149 417.083 147.917 423.75 146.75H424C425 146.75 425.5 147.167 425.5 148C425.5 149.167 425 151.25 424 154.25C423 157.25 422.25 159.25 421.75 160.25C420.917 162.25 419.583 163.25 417.75 163.25C413.583 163.25 409.25 163 404.75 162.5C400.417 161.833 396.083 161.5 391.75 161.5C388.75 161.333 385.75 161.333 382.75 161.5C379.75 161.5 376.667 161.5 373.5 161.5C372.333 161.5 371.083 161.5 369.75 161.5C368.583 161.333 367.333 161.25 366 161.25C363.5 161.25 360.75 161.5 357.75 162C354.75 162.333 352.083 163.333 349.75 165C347.583 166.5 346.5 169 346.5 172.5V232.5C346.5 238.167 347.917 241.5 350.75 242.5C353.583 243.333 357.333 243.75 362 243.75H382C386.667 243.75 391.833 243.5 397.5 243C403.333 242.5 409 241.417 414.5 239.75C420 238.083 424.5 235.667 428 232.5C431.833 229 434.5 225.167 436 221C437.667 216.667 439.583 212.333 441.75 208C442.583 206.5 443.917 205.75 445.75 205.75C447.583 205.75 448.5 206.75 448.5 208.75Z" stroke="#565452" stroke-width="30" stroke-linejoin="round" mask="url(#path-1-outside-1_246_18)"/>
<path d="M517.707 233.25C517.707 237.917 515.957 241.833 512.457 245C508.957 248.167 504.874 249.75 500.207 249.75C495.54 249.75 491.457 248.167 487.957 245C484.457 241.833 482.707 237.917 482.707 233.25C482.707 228.417 484.457 224.417 487.957 221.25C491.457 218.083 495.54 216.5 500.207 216.5C504.874 216.5 508.957 218.083 512.457 221.25C515.957 224.417 517.707 228.417 517.707 233.25Z" stroke="#565452" stroke-width="30" stroke-linejoin="round" mask="url(#path-1-outside-1_246_18)"/>
</svg>
